<mxfile host="app.diagrams.net" modified="2023-01-16T07:24:13.006Z" agent="5.0 (Windows NT 10.0; Win64; x64) AppleWebKit/537.36 (KHTML, like Gecko) Chrome/108.0.0.0 Safari/537.36 Edg/108.0.1462.76" version="20.8.5" etag="UFVbWBW56nIcdeq4coQv" type="github">
  <diagram id="oeOLm6TmariHXOsiJxw1" name="第 1 页">
    <mxGraphModel dx="560" dy="764" grid="1" gridSize="10" guides="1" tooltips="1" connect="1" arrows="1" fold="1" page="1" pageScale="1" pageWidth="827" pageHeight="1169" math="0" shadow="0">
      <root>
        <mxCell id="0" />
        <mxCell id="1" parent="0" />
        <mxCell id="Qx3qVUNE9kL9CaYIBk6r-1" value="BFF" style="shape=umlLifeline;perimeter=lifelinePerimeter;whiteSpace=wrap;html=1;container=1;collapsible=0;recursiveResize=0;outlineConnect=0;" vertex="1" parent="1">
          <mxGeometry x="1700" y="360" width="100" height="1200" as="geometry" />
        </mxCell>
        <mxCell id="Qx3qVUNE9kL9CaYIBk6r-2" value="" style="html=1;points=[];perimeter=orthogonalPerimeter;" vertex="1" parent="Qx3qVUNE9kL9CaYIBk6r-1">
          <mxGeometry x="45" y="60" width="10" height="220" as="geometry" />
        </mxCell>
        <mxCell id="Qx3qVUNE9kL9CaYIBk6r-3" value="" style="html=1;points=[];perimeter=orthogonalPerimeter;" vertex="1" parent="Qx3qVUNE9kL9CaYIBk6r-1">
          <mxGeometry x="45" y="760" width="10" height="120" as="geometry" />
        </mxCell>
        <mxCell id="Qx3qVUNE9kL9CaYIBk6r-4" value="售后申请" style="text;html=1;align=center;verticalAlign=middle;resizable=0;points=[];autosize=1;strokeColor=none;fillColor=none;" vertex="1" parent="Qx3qVUNE9kL9CaYIBk6r-1">
          <mxGeometry x="-40" y="70" width="70" height="30" as="geometry" />
        </mxCell>
        <mxCell id="Qx3qVUNE9kL9CaYIBk6r-5" value="UNEX" style="shape=umlLifeline;perimeter=lifelinePerimeter;whiteSpace=wrap;html=1;container=1;collapsible=0;recursiveResize=0;outlineConnect=0;" vertex="1" parent="1">
          <mxGeometry x="1980" y="360" width="120" height="1200" as="geometry" />
        </mxCell>
        <mxCell id="Qx3qVUNE9kL9CaYIBk6r-6" value="" style="html=1;points=[];perimeter=orthogonalPerimeter;" vertex="1" parent="Qx3qVUNE9kL9CaYIBk6r-5">
          <mxGeometry x="54" y="70" width="10" height="210" as="geometry" />
        </mxCell>
        <mxCell id="Qx3qVUNE9kL9CaYIBk6r-7" value="" style="html=1;points=[];perimeter=orthogonalPerimeter;" vertex="1" parent="Qx3qVUNE9kL9CaYIBk6r-5">
          <mxGeometry x="55" y="360" width="10" height="120" as="geometry" />
        </mxCell>
        <mxCell id="Qx3qVUNE9kL9CaYIBk6r-8" value="" style="html=1;points=[];perimeter=orthogonalPerimeter;" vertex="1" parent="Qx3qVUNE9kL9CaYIBk6r-5">
          <mxGeometry x="60" y="431" width="10" height="21" as="geometry" />
        </mxCell>
        <mxCell id="Qx3qVUNE9kL9CaYIBk6r-9" value="更新订单hasAfterSales标识" style="edgeStyle=orthogonalEdgeStyle;html=1;align=left;spacingLeft=2;endArrow=block;rounded=0;entryX=1;entryY=0;dashed=1;" edge="1" parent="Qx3qVUNE9kL9CaYIBk6r-5" target="Qx3qVUNE9kL9CaYIBk6r-8">
          <mxGeometry x="0.0133" relative="1" as="geometry">
            <mxPoint x="69" y="422" as="sourcePoint" />
            <Array as="points">
              <mxPoint x="99" y="422" />
            </Array>
            <mxPoint as="offset" />
          </mxGeometry>
        </mxCell>
        <mxCell id="Qx3qVUNE9kL9CaYIBk6r-10" value="" style="html=1;points=[];perimeter=orthogonalPerimeter;" vertex="1" parent="Qx3qVUNE9kL9CaYIBk6r-5">
          <mxGeometry x="55" y="760" width="10" height="120" as="geometry" />
        </mxCell>
        <mxCell id="Qx3qVUNE9kL9CaYIBk6r-11" value="" style="html=1;points=[];perimeter=orthogonalPerimeter;" vertex="1" parent="Qx3qVUNE9kL9CaYIBk6r-5">
          <mxGeometry x="60" y="239" width="10" height="21" as="geometry" />
        </mxCell>
        <mxCell id="Qx3qVUNE9kL9CaYIBk6r-12" value="更新订单hasAfterSales标识（仅退款售后）" style="edgeStyle=orthogonalEdgeStyle;html=1;align=left;spacingLeft=2;endArrow=block;rounded=0;entryX=1;entryY=0;dashed=1;" edge="1" parent="Qx3qVUNE9kL9CaYIBk6r-5" target="Qx3qVUNE9kL9CaYIBk6r-11">
          <mxGeometry x="0.0133" relative="1" as="geometry">
            <mxPoint x="69" y="230" as="sourcePoint" />
            <Array as="points">
              <mxPoint x="99" y="230" />
            </Array>
            <mxPoint as="offset" />
          </mxGeometry>
        </mxCell>
        <mxCell id="Qx3qVUNE9kL9CaYIBk6r-13" value="" style="html=1;points=[];perimeter=orthogonalPerimeter;" vertex="1" parent="Qx3qVUNE9kL9CaYIBk6r-5">
          <mxGeometry x="60" y="105" width="10" height="21" as="geometry" />
        </mxCell>
        <mxCell id="Qx3qVUNE9kL9CaYIBk6r-14" value="更新订单hasAfterSales标识&lt;br&gt;（退货、换货）" style="edgeStyle=orthogonalEdgeStyle;html=1;align=left;spacingLeft=2;endArrow=block;rounded=0;entryX=1;entryY=0;dashed=1;" edge="1" parent="Qx3qVUNE9kL9CaYIBk6r-5" target="Qx3qVUNE9kL9CaYIBk6r-13">
          <mxGeometry relative="1" as="geometry">
            <mxPoint x="69" y="96" as="sourcePoint" />
            <Array as="points">
              <mxPoint x="99" y="96" />
            </Array>
            <mxPoint as="offset" />
          </mxGeometry>
        </mxCell>
        <mxCell id="Qx3qVUNE9kL9CaYIBk6r-15" value="" style="html=1;points=[];perimeter=orthogonalPerimeter;" vertex="1" parent="Qx3qVUNE9kL9CaYIBk6r-5">
          <mxGeometry x="60" y="814" width="10" height="21" as="geometry" />
        </mxCell>
        <mxCell id="Qx3qVUNE9kL9CaYIBk6r-16" value="根据订单hasAfterSales标识查询过滤" style="edgeStyle=orthogonalEdgeStyle;html=1;align=left;spacingLeft=2;endArrow=block;rounded=0;entryX=1;entryY=0;dashed=1;" edge="1" parent="Qx3qVUNE9kL9CaYIBk6r-5" target="Qx3qVUNE9kL9CaYIBk6r-15">
          <mxGeometry relative="1" as="geometry">
            <mxPoint x="69" y="805" as="sourcePoint" />
            <Array as="points">
              <mxPoint x="99" y="805" />
            </Array>
            <mxPoint as="offset" />
          </mxGeometry>
        </mxCell>
        <mxCell id="Qx3qVUNE9kL9CaYIBk6r-17" value="TRADE" style="shape=umlLifeline;perimeter=lifelinePerimeter;whiteSpace=wrap;html=1;container=1;collapsible=0;recursiveResize=0;outlineConnect=0;" vertex="1" parent="1">
          <mxGeometry x="2300" y="360" width="100" height="1200" as="geometry" />
        </mxCell>
        <mxCell id="Qx3qVUNE9kL9CaYIBk6r-18" value="" style="html=1;points=[];perimeter=orthogonalPerimeter;" vertex="1" parent="Qx3qVUNE9kL9CaYIBk6r-17">
          <mxGeometry x="45" y="120" width="10" height="160" as="geometry" />
        </mxCell>
        <mxCell id="Qx3qVUNE9kL9CaYIBk6r-19" value="" style="html=1;points=[];perimeter=orthogonalPerimeter;" vertex="1" parent="Qx3qVUNE9kL9CaYIBk6r-17">
          <mxGeometry x="45" y="360" width="10" height="120" as="geometry" />
        </mxCell>
        <mxCell id="Qx3qVUNE9kL9CaYIBk6r-20" value="创建售后单" style="text;html=1;align=center;verticalAlign=middle;resizable=0;points=[];autosize=1;strokeColor=none;fillColor=none;" vertex="1" parent="1">
          <mxGeometry x="1840" y="410" width="80" height="30" as="geometry" />
        </mxCell>
        <mxCell id="Qx3qVUNE9kL9CaYIBk6r-21" style="edgeStyle=orthogonalEdgeStyle;rounded=0;orthogonalLoop=1;jettySize=auto;html=1;dashed=1;" edge="1" parent="1">
          <mxGeometry relative="1" as="geometry">
            <Array as="points">
              <mxPoint x="1890" y="500" />
              <mxPoint x="1890" y="500" />
            </Array>
            <mxPoint x="2034" y="500" as="sourcePoint" />
            <mxPoint x="1749.5000000000005" y="500" as="targetPoint" />
          </mxGeometry>
        </mxCell>
        <mxCell id="Qx3qVUNE9kL9CaYIBk6r-22" style="edgeStyle=orthogonalEdgeStyle;rounded=0;orthogonalLoop=1;jettySize=auto;html=1;" edge="1" parent="1">
          <mxGeometry relative="1" as="geometry">
            <Array as="points">
              <mxPoint x="2250" y="519" />
              <mxPoint x="2250" y="519" />
            </Array>
            <mxPoint x="2044" y="519.0000000000002" as="sourcePoint" />
            <mxPoint x="2349.5" y="519.0000000000002" as="targetPoint" />
          </mxGeometry>
        </mxCell>
        <mxCell id="Qx3qVUNE9kL9CaYIBk6r-23" value="取消订单（整单）" style="text;html=1;align=center;verticalAlign=middle;resizable=0;points=[];autosize=1;strokeColor=none;fillColor=none;" vertex="1" parent="1">
          <mxGeometry x="2130" y="491" width="120" height="30" as="geometry" />
        </mxCell>
        <mxCell id="Qx3qVUNE9kL9CaYIBk6r-24" style="edgeStyle=orthogonalEdgeStyle;rounded=0;orthogonalLoop=1;jettySize=auto;html=1;exitX=0.5;exitY=0.5;exitDx=0;exitDy=0;exitPerimeter=0;dashed=1;" edge="1" parent="1" source="Qx3qVUNE9kL9CaYIBk6r-25">
          <mxGeometry relative="1" as="geometry">
            <mxPoint x="1750" y="430" as="targetPoint" />
            <Array as="points">
              <mxPoint x="1750" y="430" />
            </Array>
          </mxGeometry>
        </mxCell>
        <mxCell id="Qx3qVUNE9kL9CaYIBk6r-25" value="Actor" style="shape=umlActor;verticalLabelPosition=bottom;verticalAlign=top;html=1;" vertex="1" parent="1">
          <mxGeometry x="1634" y="410" width="20" height="40" as="geometry" />
        </mxCell>
        <mxCell id="Qx3qVUNE9kL9CaYIBk6r-26" style="edgeStyle=orthogonalEdgeStyle;rounded=0;orthogonalLoop=1;jettySize=auto;html=1;entryX=0.5;entryY=0.167;entryDx=0;entryDy=0;entryPerimeter=0;" edge="1" parent="1" source="Qx3qVUNE9kL9CaYIBk6r-19" target="Qx3qVUNE9kL9CaYIBk6r-7">
          <mxGeometry relative="1" as="geometry">
            <Array as="points">
              <mxPoint x="2230" y="740" />
              <mxPoint x="2230" y="740" />
            </Array>
          </mxGeometry>
        </mxCell>
        <mxCell id="Qx3qVUNE9kL9CaYIBk6r-27" value="售后单创建成功事件&lt;br&gt;&lt;div&gt;1、RETURN_ORDER_CREATED&lt;/div&gt;&lt;div&gt;2、EXCHANGE_ORDER_CREATED&lt;/div&gt;" style="text;html=1;align=center;verticalAlign=middle;resizable=0;points=[];autosize=1;strokeColor=none;fillColor=none;" vertex="1" parent="1">
          <mxGeometry x="2090" y="674" width="220" height="60" as="geometry" />
        </mxCell>
        <mxCell id="Qx3qVUNE9kL9CaYIBk6r-28" style="edgeStyle=orthogonalEdgeStyle;rounded=0;orthogonalLoop=1;jettySize=auto;html=1;entryX=0.5;entryY=0.458;entryDx=0;entryDy=0;entryPerimeter=0;" edge="1" parent="1" source="Qx3qVUNE9kL9CaYIBk6r-29">
          <mxGeometry relative="1" as="geometry">
            <mxPoint x="1750" y="1134.96" as="targetPoint" />
          </mxGeometry>
        </mxCell>
        <mxCell id="Qx3qVUNE9kL9CaYIBk6r-29" value="Actor" style="shape=umlActor;verticalLabelPosition=bottom;verticalAlign=top;html=1;" vertex="1" parent="1">
          <mxGeometry x="1634" y="1115" width="20" height="40" as="geometry" />
        </mxCell>
        <mxCell id="Qx3qVUNE9kL9CaYIBk6r-30" value="我的售后订单&lt;br&gt;列表（订单分页）" style="text;html=1;align=center;verticalAlign=middle;resizable=0;points=[];autosize=1;strokeColor=none;fillColor=none;" vertex="1" parent="1">
          <mxGeometry x="1640" y="1100" width="120" height="40" as="geometry" />
        </mxCell>
        <mxCell id="Qx3qVUNE9kL9CaYIBk6r-31" style="edgeStyle=orthogonalEdgeStyle;rounded=0;orthogonalLoop=1;jettySize=auto;html=1;" edge="1" parent="1" source="Qx3qVUNE9kL9CaYIBk6r-3">
          <mxGeometry relative="1" as="geometry">
            <Array as="points">
              <mxPoint x="2040" y="1150" />
            </Array>
            <mxPoint x="2040" y="1150" as="targetPoint" />
          </mxGeometry>
        </mxCell>
        <mxCell id="Qx3qVUNE9kL9CaYIBk6r-32" style="edgeStyle=orthogonalEdgeStyle;rounded=0;orthogonalLoop=1;jettySize=auto;html=1;strokeColor=#000000;" edge="1" parent="1" source="Qx3qVUNE9kL9CaYIBk6r-2">
          <mxGeometry relative="1" as="geometry">
            <Array as="points">
              <mxPoint x="1780" y="440" />
              <mxPoint x="1780" y="440" />
            </Array>
            <mxPoint x="2040" y="440" as="targetPoint" />
          </mxGeometry>
        </mxCell>
        <mxCell id="Qx3qVUNE9kL9CaYIBk6r-33" value="取消成功事件" style="text;html=1;align=center;verticalAlign=middle;resizable=0;points=[];autosize=1;strokeColor=none;fillColor=none;" vertex="1" parent="1">
          <mxGeometry x="2140" y="540" width="100" height="30" as="geometry" />
        </mxCell>
        <mxCell id="Qx3qVUNE9kL9CaYIBk6r-34" style="edgeStyle=orthogonalEdgeStyle;rounded=0;orthogonalLoop=1;jettySize=auto;html=1;dashed=1;" edge="1" parent="1">
          <mxGeometry relative="1" as="geometry">
            <mxPoint x="2345" y="539.0000000000002" as="sourcePoint" />
            <mxPoint x="2039" y="539.0000000000002" as="targetPoint" />
            <Array as="points">
              <mxPoint x="2310" y="539" />
              <mxPoint x="2310" y="539" />
            </Array>
          </mxGeometry>
        </mxCell>
        <mxCell id="Qx3qVUNE9kL9CaYIBk6r-35" value="" style="html=1;points=[];perimeter=orthogonalPerimeter;" vertex="1" parent="1">
          <mxGeometry x="2035" y="921" width="10" height="120" as="geometry" />
        </mxCell>
        <mxCell id="Qx3qVUNE9kL9CaYIBk6r-36" value="" style="html=1;points=[];perimeter=orthogonalPerimeter;" vertex="1" parent="1">
          <mxGeometry x="2040" y="970" width="10" height="21" as="geometry" />
        </mxCell>
        <mxCell id="Qx3qVUNE9kL9CaYIBk6r-37" value="创建仅退款售后单" style="edgeStyle=orthogonalEdgeStyle;html=1;align=left;spacingLeft=2;endArrow=block;rounded=0;entryX=1;entryY=0;dashed=1;" edge="1" parent="1" target="Qx3qVUNE9kL9CaYIBk6r-36">
          <mxGeometry relative="1" as="geometry">
            <mxPoint x="2049" y="961" as="sourcePoint" />
            <Array as="points">
              <mxPoint x="2079" y="961" />
            </Array>
            <mxPoint as="offset" />
          </mxGeometry>
        </mxCell>
        <mxCell id="Qx3qVUNE9kL9CaYIBk6r-38" value="" style="html=1;points=[];perimeter=orthogonalPerimeter;" vertex="1" parent="1">
          <mxGeometry x="2345" y="921" width="10" height="120" as="geometry" />
        </mxCell>
        <mxCell id="Qx3qVUNE9kL9CaYIBk6r-39" style="edgeStyle=orthogonalEdgeStyle;rounded=0;orthogonalLoop=1;jettySize=auto;html=1;entryX=0.5;entryY=0.167;entryDx=0;entryDy=0;entryPerimeter=0;" edge="1" parent="1" source="Qx3qVUNE9kL9CaYIBk6r-38" target="Qx3qVUNE9kL9CaYIBk6r-35">
          <mxGeometry relative="1" as="geometry">
            <Array as="points">
              <mxPoint x="2230" y="941" />
              <mxPoint x="2230" y="941" />
            </Array>
          </mxGeometry>
        </mxCell>
        <mxCell id="Qx3qVUNE9kL9CaYIBk6r-40" value="未发货仅退款事件&lt;br&gt;ORDER_CANCEL_APPLY" style="text;html=1;align=center;verticalAlign=middle;resizable=0;points=[];autosize=1;strokeColor=none;fillColor=none;" vertex="1" parent="1">
          <mxGeometry x="2115" y="900" width="170" height="40" as="geometry" />
        </mxCell>
        <mxCell id="Qx3qVUNE9kL9CaYIBk6r-41" value="" style="html=1;points=[];perimeter=orthogonalPerimeter;" vertex="1" parent="1">
          <mxGeometry x="2040" y="1009" width="10" height="21" as="geometry" />
        </mxCell>
        <mxCell id="Qx3qVUNE9kL9CaYIBk6r-42" value="更新订单hasAfterSales标识" style="edgeStyle=orthogonalEdgeStyle;html=1;align=left;spacingLeft=2;endArrow=block;rounded=0;entryX=1;entryY=0;dashed=1;" edge="1" parent="1" target="Qx3qVUNE9kL9CaYIBk6r-41">
          <mxGeometry relative="1" as="geometry">
            <mxPoint x="2049" y="1000" as="sourcePoint" />
            <Array as="points">
              <mxPoint x="2079" y="1000" />
            </Array>
            <mxPoint as="offset" />
          </mxGeometry>
        </mxCell>
        <mxCell id="Qx3qVUNE9kL9CaYIBk6r-43" value="查询（增加参数hasAfterSales）" style="text;html=1;align=center;verticalAlign=middle;resizable=0;points=[];autosize=1;strokeColor=none;fillColor=none;" vertex="1" parent="1">
          <mxGeometry x="1800" y="1120" width="190" height="30" as="geometry" />
        </mxCell>
        <mxCell id="Qx3qVUNE9kL9CaYIBk6r-44" style="edgeStyle=orthogonalEdgeStyle;rounded=0;orthogonalLoop=1;jettySize=auto;html=1;entryX=0.5;entryY=0.75;entryDx=0;entryDy=0;entryPerimeter=0;dashed=1;" edge="1" parent="1" source="Qx3qVUNE9kL9CaYIBk6r-10" target="Qx3qVUNE9kL9CaYIBk6r-3">
          <mxGeometry relative="1" as="geometry">
            <Array as="points">
              <mxPoint x="2000" y="1210" />
              <mxPoint x="2000" y="1210" />
            </Array>
          </mxGeometry>
        </mxCell>
        <mxCell id="Qx3qVUNE9kL9CaYIBk6r-45" value="" style="html=1;points=[];perimeter=orthogonalPerimeter;" vertex="1" parent="1">
          <mxGeometry x="1745" y="1360" width="10" height="120" as="geometry" />
        </mxCell>
        <mxCell id="Qx3qVUNE9kL9CaYIBk6r-46" value="" style="html=1;points=[];perimeter=orthogonalPerimeter;" vertex="1" parent="1">
          <mxGeometry x="2035" y="1360" width="10" height="120" as="geometry" />
        </mxCell>
        <mxCell id="Qx3qVUNE9kL9CaYIBk6r-47" style="edgeStyle=orthogonalEdgeStyle;rounded=0;orthogonalLoop=1;jettySize=auto;html=1;entryX=0.5;entryY=0.458;entryDx=0;entryDy=0;entryPerimeter=0;" edge="1" parent="1" source="Qx3qVUNE9kL9CaYIBk6r-48">
          <mxGeometry relative="1" as="geometry">
            <mxPoint x="1750" y="1374.96" as="targetPoint" />
          </mxGeometry>
        </mxCell>
        <mxCell id="Qx3qVUNE9kL9CaYIBk6r-48" value="Actor" style="shape=umlActor;verticalLabelPosition=bottom;verticalAlign=top;html=1;" vertex="1" parent="1">
          <mxGeometry x="1634" y="1355" width="20" height="40" as="geometry" />
        </mxCell>
        <mxCell id="Qx3qVUNE9kL9CaYIBk6r-49" value="售后单列表" style="text;html=1;align=center;verticalAlign=middle;resizable=0;points=[];autosize=1;strokeColor=none;fillColor=none;" vertex="1" parent="1">
          <mxGeometry x="1660" y="1345" width="80" height="30" as="geometry" />
        </mxCell>
        <mxCell id="Qx3qVUNE9kL9CaYIBk6r-50" style="edgeStyle=orthogonalEdgeStyle;rounded=0;orthogonalLoop=1;jettySize=auto;html=1;" edge="1" parent="1" source="Qx3qVUNE9kL9CaYIBk6r-45">
          <mxGeometry relative="1" as="geometry">
            <Array as="points">
              <mxPoint x="2040" y="1390" />
            </Array>
            <mxPoint x="2040" y="1390" as="targetPoint" />
          </mxGeometry>
        </mxCell>
        <mxCell id="Qx3qVUNE9kL9CaYIBk6r-51" value="查询（增加AfterSalesType参数&lt;span style=&quot;background-color: initial;&quot;&gt;）&lt;/span&gt;" style="text;html=1;align=center;verticalAlign=middle;resizable=0;points=[];autosize=1;strokeColor=none;fillColor=none;" vertex="1" parent="1">
          <mxGeometry x="1795" y="1360" width="200" height="30" as="geometry" />
        </mxCell>
        <mxCell id="Qx3qVUNE9kL9CaYIBk6r-52" style="edgeStyle=orthogonalEdgeStyle;rounded=0;orthogonalLoop=1;jettySize=auto;html=1;entryX=0.5;entryY=0.75;entryDx=0;entryDy=0;entryPerimeter=0;dashed=1;" edge="1" parent="1" source="Qx3qVUNE9kL9CaYIBk6r-46" target="Qx3qVUNE9kL9CaYIBk6r-45">
          <mxGeometry relative="1" as="geometry">
            <Array as="points">
              <mxPoint x="2000" y="1450" />
              <mxPoint x="2000" y="1450" />
            </Array>
          </mxGeometry>
        </mxCell>
        <mxCell id="Qx3qVUNE9kL9CaYIBk6r-53" value="" style="html=1;points=[];perimeter=orthogonalPerimeter;" vertex="1" parent="1">
          <mxGeometry x="2040" y="1414" width="10" height="21" as="geometry" />
        </mxCell>
        <mxCell id="Qx3qVUNE9kL9CaYIBk6r-54" value="根据售后单类型过滤&lt;br&gt;默认值为：RETURN &amp;amp;&amp;nbsp;EXCHANGE&lt;br&gt;ANF传：RETURN &amp;amp; EXCHANGE &amp;amp; REFUOUND" style="edgeStyle=orthogonalEdgeStyle;html=1;align=left;spacingLeft=2;endArrow=block;rounded=0;entryX=1;entryY=0;dashed=1;" edge="1" parent="1" target="Qx3qVUNE9kL9CaYIBk6r-53">
          <mxGeometry relative="1" as="geometry">
            <mxPoint x="2049" y="1405" as="sourcePoint" />
            <Array as="points">
              <mxPoint x="2079" y="1405" />
            </Array>
            <mxPoint as="offset" />
          </mxGeometry>
        </mxCell>
      </root>
    </mxGraphModel>
  </diagram>
</mxfile>
